<svg width="1280" height="382" viewBox="0 0 1280 382" fill="none" xmlns="http://www.w3.org/2000/svg">
<g clip-path="url(#clip0_482_31106)">
<path d="M266.612 38.2076L215.567 87.8074V0H166.756V87.8074L115.704 38.2076L81.6812 73.169L191.161 179.547L300.642 73.169L266.612 38.2076Z" fill="#404040"/>
<path d="M300.642 308.831L191.161 202.453L81.6812 308.831L115.704 343.792L166.756 294.193V382H215.567V294.193L266.612 343.792L300.642 308.831Z" fill="#404040"/>
<path d="M73.2309 81.6122L38.2399 115.613L87.8816 166.615H0V215.385H87.8816L38.2399 266.386L73.2309 300.388L179.699 191L73.2309 81.6122Z" fill="black"/>
<path d="M382.323 166.615H294.441L344.083 115.613L309.092 81.6122L202.624 191L309.092 300.388L344.083 266.386L294.441 215.385H382.323V166.615Z" fill="black"/>
<path d="M566.605 158.972C575.681 164.2 580.219 172.079 580.219 182.625C580.219 191.396 577.115 198.59 570.899 204.206C564.683 209.822 557.041 212.634 547.966 212.634H504.021V109.152H544.854C553.731 109.152 561.205 111.887 567.269 117.359C573.332 122.83 576.367 129.802 576.367 138.276C576.367 146.75 573.111 153.753 566.605 158.972ZM544.854 128.225H524.437V150.994H544.854C548.011 150.994 550.65 149.912 552.77 147.74C554.891 145.576 555.951 142.863 555.951 139.609C555.951 136.356 554.914 133.65 552.847 131.479C550.772 129.315 548.111 128.225 544.854 128.225ZM547.958 193.568C551.413 193.568 554.273 192.41 556.538 190.093C558.803 187.777 559.939 184.843 559.939 181.3C559.939 177.756 558.803 174.967 556.538 172.651C554.265 170.334 551.405 169.176 547.958 169.176H524.43V193.568H547.958Z" fill="black"/>
<path d="M600.627 109.152H621.044V212.634H600.627V109.152Z" fill="black"/>
<path d="M687.922 228.453C667.208 229.932 656.851 220.764 656.851 200.96V179.082C656.851 175.043 655.913 172.43 654.037 171.248C652.16 170.067 649.201 169.625 645.159 169.915V151.436C649.201 151.733 652.16 151.291 654.037 150.102C655.913 148.921 656.851 146.308 656.851 142.269V120.391C656.851 100.579 667.208 91.4194 687.922 92.8977V111.232C683.78 110.737 680.745 111.133 678.823 112.413C676.901 113.693 675.94 116.353 675.94 120.399V142.277C675.94 151.245 672.981 157.357 667.063 160.611C672.981 163.964 675.94 170.121 675.94 179.09V200.967C675.94 205.006 676.901 207.673 678.823 208.953C680.745 210.233 683.78 210.63 687.922 210.134V228.468V228.453Z" fill="black"/>
<path d="M754.053 151.253H735.611V185.178C735.611 188.005 736.321 190.07 737.732 191.373C739.143 192.676 741.209 193.416 743.932 193.576C746.655 193.736 750.026 193.713 754.053 193.492V212.573C739.577 214.203 729.38 212.839 723.447 208.496C717.513 204.145 714.554 196.372 714.554 185.171V151.245H700.354V131.022H714.554V114.547L735.611 108.184V131.014H754.053V151.238V151.253Z" fill="#404040"/>
<path d="M770.435 228.453V210.119C774.576 210.614 777.611 210.218 779.533 208.938C781.455 207.658 782.416 204.998 782.416 200.952V179.074C782.416 170.105 785.375 163.948 791.293 160.595C785.375 157.342 782.416 151.23 782.416 142.261V120.384C782.416 116.345 781.455 113.686 779.533 112.398C777.611 111.118 774.576 110.721 770.435 111.217V92.8825C791.148 91.4041 801.505 100.571 801.505 120.376V142.254C801.505 146.292 802.444 148.906 804.32 150.087C806.196 151.268 809.155 151.71 813.197 151.421V169.9C809.155 169.603 806.196 170.044 804.32 171.233C802.444 172.414 801.505 175.028 801.505 179.067V200.944C801.505 220.757 791.148 229.916 770.435 228.438V228.453Z" fill="black"/>
<path d="M899.836 128.667H858.408V153.204H898.653V172.719H858.408V212.634H837.991V109.152H899.836V128.667Z" fill="black"/>
<path d="M978.695 212.634L957.836 176.712H942.3V212.634H921.884V109.152H963.312C972.875 109.152 981.013 112.504 987.724 119.203C994.428 125.908 997.784 133.986 997.784 143.45C997.784 149.859 995.961 155.795 992.308 161.266C988.655 166.737 983.827 170.852 977.81 173.611L1000.74 212.641H978.695V212.634ZM942.3 128.225V158.828H963.312C967.155 158.828 970.465 157.326 973.226 154.316C975.987 151.314 977.368 147.687 977.368 143.45C977.368 139.213 975.987 135.616 973.226 132.66C970.465 129.703 967.163 128.225 963.312 128.225H942.3Z" fill="black"/>
<path d="M1087.07 202.316C1078.75 210.576 1068.59 214.706 1056.6 214.706C1044.61 214.706 1034.48 210.576 1026.21 202.316C1017.94 194.056 1013.81 183.936 1013.81 171.95C1013.81 159.963 1017.94 149.843 1026.21 141.583C1034.48 133.323 1044.6 129.193 1056.6 129.193C1068.6 129.193 1078.75 133.323 1087.07 141.583C1095.39 149.843 1099.55 159.963 1099.55 171.95C1099.55 183.936 1095.39 194.056 1087.07 202.316ZM1048.9 119.073C1046.79 121.176 1044.22 122.228 1041.2 122.228C1038.18 122.228 1035.58 121.176 1033.42 119.073C1031.26 116.97 1030.18 114.402 1030.18 111.384C1030.18 108.367 1031.26 105.768 1033.42 103.612C1035.59 101.455 1038.17 100.373 1041.2 100.373C1044.23 100.373 1046.79 101.455 1048.9 103.612C1051 105.776 1052.06 108.367 1052.06 111.384C1052.06 114.402 1051 116.97 1048.9 119.073ZM1040.96 187.982C1045.11 192.196 1050.33 194.3 1056.6 194.3C1062.87 194.3 1068.11 192.196 1072.32 187.982C1076.54 183.768 1078.64 178.427 1078.64 171.95C1078.64 165.472 1076.54 160.131 1072.32 155.917C1068.1 151.703 1062.86 149.6 1056.6 149.6C1050.34 149.6 1045.11 151.703 1040.96 155.917C1036.79 160.131 1034.72 165.472 1034.72 171.95C1034.72 178.427 1036.8 183.768 1040.96 187.982ZM1079.69 119.073C1077.59 121.176 1075.02 122.228 1072 122.228C1068.98 122.228 1066.38 121.176 1064.22 119.073C1062.05 116.97 1060.98 114.402 1060.98 111.384C1060.98 108.367 1062.05 105.768 1064.22 103.612C1066.38 101.455 1068.97 100.373 1072 100.373C1075.03 100.373 1077.59 101.455 1079.69 103.612C1081.8 105.776 1082.85 108.367 1082.85 111.384C1082.85 114.402 1081.8 116.97 1079.69 119.073Z" fill="black"/>
<path d="M1157.2 214.706C1146.94 214.706 1138.3 212.413 1131.3 207.833C1124.3 203.253 1119.37 197.02 1116.51 189.133L1133.97 178.93C1138.01 189.476 1145.95 194.749 1157.78 194.749C1163.5 194.749 1167.7 193.713 1170.36 191.648C1173.02 189.583 1174.36 186.969 1174.36 183.814C1174.36 180.172 1172.73 177.337 1169.47 175.31C1166.22 173.291 1160.4 171.096 1152.02 168.734C1147.38 167.355 1143.46 165.975 1140.26 164.596C1137.05 163.217 1133.84 161.373 1130.64 159.049C1127.43 156.732 1124.99 153.798 1123.32 150.255C1121.64 146.704 1120.8 142.566 1120.8 137.834C1120.8 128.469 1124.13 121.009 1130.78 115.438C1137.44 109.868 1145.46 107.087 1154.83 107.087C1163.21 107.087 1170.59 109.136 1176.95 113.221C1183.31 117.313 1188.27 123.005 1191.82 130.298L1174.66 140.204C1170.52 131.334 1163.91 126.899 1154.83 126.899C1150.59 126.899 1147.26 127.859 1144.85 129.779C1142.43 131.7 1141.23 134.192 1141.23 137.247C1141.23 140.501 1142.58 143.138 1145.29 145.157C1148.01 147.176 1153.21 149.371 1160.9 151.733C1164.06 152.716 1166.45 153.486 1168.08 154.027C1169.7 154.568 1171.92 155.406 1174.74 156.542C1177.55 157.677 1179.72 158.736 1181.25 159.719C1182.78 160.702 1184.53 162.036 1186.51 163.712C1188.48 165.389 1189.98 167.111 1191.02 168.886C1192.06 170.662 1192.94 172.803 1193.68 175.318C1194.42 177.832 1194.8 180.568 1194.8 183.525C1194.8 193.088 1191.32 200.67 1184.36 206.294C1177.41 211.917 1168.35 214.722 1157.21 214.722L1157.2 214.706Z" fill="black"/>
<path d="M1280 109.152V128.667H1252.03V212.634H1231.62V128.667H1203.8V109.152H1280Z" fill="black"/>
</g>
<defs>
<clipPath id="clip0_482_31106">
<rect width="1280" height="382" fill="white"/>
</clipPath>
</defs>
</svg>
