<svg width="1280" height="382" viewBox="0 0 1280 382" fill="none" xmlns="http://www.w3.org/2000/svg">
<g clip-path="url(#clip0_482_31106)">
<path d="M515.515 293.911V253.6H499.964V247.793H538.021V253.6H522.31V293.911H515.515Z" fill="#404040"/>
<path d="M556.759 293.911V247.793H563.555V267.499H579.105V247.793H585.901V293.911H579.105V273.222H563.555V293.911H556.759Z" fill="#404040"/>
<path d="M609.131 293.911V247.793H639.165V253.6H615.927V267.499H636.137V273.306H615.927V288.104H639.165V293.911H609.131Z" fill="#404040"/>
<path d="M713.875 293.911V247.793H727.382C734.475 247.793 739.455 249.767 742.315 253.722C745.183 257.677 746.609 263.277 746.609 270.524C746.609 277.771 745.145 283.692 742.231 287.776C739.31 291.868 734.361 293.911 727.382 293.911H713.875ZM720.671 253.6V288.104H727.382C729.563 288.104 731.432 287.723 732.988 286.961C734.544 286.199 735.726 285.269 736.549 284.18C737.365 283.09 738.021 281.711 738.517 280.05C739.005 278.388 739.31 276.887 739.417 275.554C739.524 274.22 739.577 272.65 739.577 270.852C739.577 268.566 739.455 266.585 739.211 264.923C738.967 263.262 738.471 261.479 737.739 259.566C736.999 257.661 735.764 256.191 734.017 255.154C732.271 254.118 730.059 253.6 727.39 253.6H720.678H720.671Z" fill="#404040"/>
<path d="M780.654 294.734C774.599 294.734 770.084 292.676 767.11 288.561C764.135 284.446 762.648 278.625 762.648 271.103C762.648 263.582 764.173 257.463 767.232 253.234C770.29 249.012 774.866 246.894 780.982 246.894C787.099 246.894 791.553 248.952 794.527 253.066C797.502 257.181 798.989 263.026 798.989 270.608C798.989 278.19 797.464 284.233 794.405 288.432C791.347 292.63 786.763 294.726 780.654 294.726V294.734ZM774.843 287.212C776.422 288.302 778.412 288.851 780.815 288.851C783.217 288.851 785.208 288.31 786.786 287.212C788.365 286.123 789.517 284.599 790.226 282.633C790.935 280.667 791.4 278.807 791.614 277.032C791.835 275.264 791.942 273.207 791.942 270.86C791.942 268.513 791.835 266.455 791.614 264.687C791.393 262.919 790.928 261.037 790.226 259.048C789.517 257.059 788.373 255.52 786.786 254.43C785.2 253.341 783.209 252.792 780.815 252.792C778.42 252.792 776.422 253.341 774.843 254.43C773.257 255.52 772.113 257.059 771.403 259.048C770.694 261.037 770.229 262.919 770.015 264.687C769.794 266.463 769.687 268.52 769.687 270.86C769.687 273.199 769.794 275.264 770.015 277.032C770.236 278.807 770.694 280.674 771.403 282.633C772.113 284.599 773.257 286.123 774.843 287.212Z" fill="#404040"/>
<path d="M831.799 294.734C828.801 294.734 826.178 294.078 823.943 292.768C821.709 291.457 819.962 289.651 818.704 287.327C817.445 285.01 816.522 282.488 815.92 279.76C815.317 277.032 815.02 274.068 815.02 270.844C815.02 263.323 816.599 257.448 819.764 253.226C822.929 249.005 827.512 246.886 833.515 246.886C838.152 246.886 841.927 248.212 844.848 250.849C847.769 253.493 849.332 257.539 849.553 262.988H843.01C842.682 259.498 841.797 256.922 840.348 255.261C838.899 253.6 836.71 252.769 833.759 252.769C831.738 252.769 830.006 253.15 828.565 253.912C827.116 254.674 825.987 255.627 825.171 256.777C824.355 257.928 823.699 259.353 823.203 261.068C822.715 262.782 822.395 264.39 822.265 265.891C822.128 267.392 822.059 269.069 822.059 270.921C822.059 273.481 822.212 275.744 822.509 277.71C822.807 279.676 823.341 281.543 824.103 283.311C824.866 285.086 826.025 286.443 827.581 287.403C829.137 288.356 831.059 288.836 833.354 288.836C836.954 288.836 840.15 287.525 842.926 284.911V274.693H832.126V269.054H849.477V293.911H844.161V288.843C843.231 290.314 841.706 291.663 839.578 292.89C837.45 294.116 834.857 294.726 831.806 294.726L831.799 294.734Z" fill="#404040"/>
<path d="M871 293.911V247.793H901.033V253.6H877.795V267.499H898.005V273.306H877.795V288.104H901.033V293.911H871Z" fill="#404040"/>
<path d="M975.744 293.911V247.793H990.066C995.031 247.793 999.043 248.936 1002.09 251.23C1005.15 253.516 1006.68 256.602 1006.68 260.466C1006.68 264.878 1004.5 268.04 1000.13 269.953C1002.48 270.715 1004.46 271.987 1006.07 273.755C1007.68 275.531 1008.48 277.832 1008.48 280.667C1008.48 284.644 1006.9 287.853 1003.74 290.276C1000.58 292.699 996.511 293.918 991.546 293.918H975.751L975.744 293.911ZM982.539 253.6V267.499H989.25C996.122 267.499 999.562 265.266 999.562 260.793C999.562 256 996.236 253.6 989.578 253.6H982.539ZM982.539 273.306V288.104H991.294C994.787 288.104 997.35 287.395 998.99 285.978C1000.63 284.561 1001.45 282.739 1001.45 280.499C1001.45 275.706 997.983 273.306 991.05 273.306H982.539Z" fill="#404040"/>
<path d="M1028.12 293.911V247.793H1040.07C1046.07 247.793 1050.76 249.005 1054.15 251.428C1057.52 253.851 1059.22 257.326 1059.22 261.852C1059.22 265.449 1058.2 268.436 1056.15 270.806C1054.11 273.176 1051.42 274.769 1048.09 275.592L1062.41 293.911H1053.9L1041.05 276.742H1034.91V293.911H1028.12ZM1034.91 253.6V271.096H1040.15C1048.17 271.096 1052.18 268.177 1052.18 262.348C1052.18 256.518 1048.17 253.6 1040.15 253.6H1034.91Z" fill="#404040"/>
<path d="M1080.41 293.911V288.104H1091.71V253.6H1080.41V247.793H1109.71V253.6H1098.49V288.104H1109.71V293.911H1080.41Z" fill="#404040"/>
<path d="M1132.87 293.911V247.793H1146.37C1153.47 247.793 1158.45 249.767 1161.31 253.722C1164.17 257.677 1165.6 263.277 1165.6 270.524C1165.6 277.771 1164.14 283.692 1161.22 287.776C1158.3 291.868 1153.35 293.911 1146.37 293.911H1132.87ZM1139.66 253.6V288.104H1146.37C1148.56 288.104 1150.42 287.723 1151.98 286.961C1153.54 286.199 1154.72 285.269 1155.54 284.18C1156.36 283.09 1157.01 281.711 1157.51 280.05C1158 278.388 1158.3 276.887 1158.41 275.554C1158.52 274.22 1158.57 272.65 1158.57 270.852C1158.57 268.566 1158.45 266.585 1158.2 264.923C1157.96 263.262 1157.46 261.479 1156.73 259.566C1155.99 257.661 1154.76 256.191 1153.01 255.154C1151.26 254.118 1149.05 253.6 1146.38 253.6H1139.67H1139.66Z" fill="#404040"/>
<path d="M1198.41 294.734C1195.41 294.734 1192.79 294.078 1190.56 292.768C1188.32 291.457 1186.57 289.651 1185.32 287.327C1184.06 285.01 1183.13 282.488 1182.53 279.76C1181.93 277.032 1181.63 274.068 1181.63 270.844C1181.63 263.323 1183.21 257.448 1186.38 253.226C1189.54 249.005 1194.12 246.886 1200.13 246.886C1204.76 246.886 1208.54 248.212 1211.46 250.849C1214.38 253.493 1215.94 257.539 1216.17 262.988H1209.62C1209.29 259.498 1208.41 256.922 1206.96 255.261C1205.51 253.6 1203.32 252.769 1200.37 252.769C1198.35 252.769 1196.62 253.15 1195.18 253.912C1193.73 254.674 1192.6 255.627 1191.78 256.777C1190.97 257.928 1190.31 259.353 1189.82 261.068C1189.33 262.782 1189.01 264.39 1188.88 265.891C1188.74 267.392 1188.67 269.069 1188.67 270.921C1188.67 273.481 1188.82 275.744 1189.12 277.71C1189.42 279.676 1189.95 281.543 1190.72 283.311C1191.48 285.086 1192.64 286.443 1194.19 287.403C1195.75 288.356 1197.67 288.836 1199.97 288.836C1203.57 288.836 1206.76 287.525 1209.54 284.911V274.693H1198.74V269.054H1216.09V293.911H1210.77V288.843C1209.84 290.314 1208.32 291.663 1206.19 292.89C1204.06 294.116 1201.47 294.726 1198.42 294.726L1198.41 294.734Z" fill="#404040"/>
<path d="M1237.61 293.911V247.793H1267.64V253.6H1244.41V267.499H1264.62V273.306H1244.41V288.104H1267.64V293.911H1237.61Z" fill="#404040"/>
<path d="M266.612 38.2076L215.567 87.8074V0H166.756V87.8074L115.704 38.2076L81.6812 73.169L191.161 179.547L300.642 73.169L266.612 38.2076Z" fill="#404040"/>
<path d="M300.642 308.831L191.161 202.453L81.6812 308.831L115.704 343.792L166.756 294.193V382H215.567V294.193L266.612 343.792L300.642 308.831Z" fill="#404040"/>
<path d="M73.2309 81.6122L38.2399 115.613L87.8816 166.615H0V215.385H87.8816L38.2399 266.386L73.2309 300.388L179.699 191L73.2309 81.6122Z" fill="black"/>
<path d="M382.323 166.615H294.441L344.083 115.613L309.092 81.6122L202.624 191L309.092 300.388L344.083 266.386L294.441 215.385H382.323V166.615Z" fill="black"/>
<path d="M566.605 158.972C575.681 164.2 580.219 172.079 580.219 182.625C580.219 191.396 577.115 198.59 570.899 204.206C564.683 209.822 557.041 212.634 547.966 212.634H504.021V109.152H544.854C553.731 109.152 561.205 111.887 567.269 117.359C573.332 122.83 576.367 129.802 576.367 138.276C576.367 146.75 573.111 153.753 566.605 158.972ZM544.854 128.225H524.437V150.994H544.854C548.011 150.994 550.65 149.912 552.77 147.74C554.891 145.576 555.951 142.863 555.951 139.609C555.951 136.356 554.914 133.65 552.847 131.479C550.772 129.315 548.111 128.225 544.854 128.225ZM547.958 193.568C551.413 193.568 554.273 192.41 556.538 190.093C558.803 187.777 559.939 184.843 559.939 181.3C559.939 177.756 558.803 174.967 556.538 172.651C554.265 170.334 551.405 169.176 547.958 169.176H524.43V193.568H547.958Z" fill="black"/>
<path d="M600.627 109.152H621.044V212.634H600.627V109.152Z" fill="black"/>
<path d="M687.922 228.453C667.208 229.932 656.851 220.764 656.851 200.96V179.082C656.851 175.043 655.913 172.43 654.037 171.248C652.16 170.067 649.201 169.625 645.159 169.915V151.436C649.201 151.733 652.16 151.291 654.037 150.102C655.913 148.921 656.851 146.308 656.851 142.269V120.391C656.851 100.579 667.208 91.4194 687.922 92.8977V111.232C683.78 110.737 680.745 111.133 678.823 112.413C676.901 113.693 675.94 116.353 675.94 120.399V142.277C675.94 151.245 672.981 157.357 667.063 160.611C672.981 163.964 675.94 170.121 675.94 179.09V200.967C675.94 205.006 676.901 207.673 678.823 208.953C680.745 210.233 683.78 210.63 687.922 210.134V228.468V228.453Z" fill="black"/>
<path d="M754.053 151.253H735.611V185.178C735.611 188.005 736.321 190.07 737.732 191.373C739.143 192.676 741.209 193.416 743.932 193.576C746.655 193.736 750.026 193.713 754.053 193.492V212.573C739.577 214.203 729.38 212.839 723.447 208.496C717.513 204.145 714.554 196.372 714.554 185.171V151.245H700.354V131.022H714.554V114.547L735.611 108.184V131.014H754.053V151.238V151.253Z" fill="#404040"/>
<path d="M770.435 228.453V210.119C774.576 210.614 777.611 210.218 779.533 208.938C781.455 207.658 782.416 204.998 782.416 200.952V179.074C782.416 170.105 785.375 163.948 791.293 160.595C785.375 157.342 782.416 151.23 782.416 142.261V120.384C782.416 116.345 781.455 113.686 779.533 112.398C777.611 111.118 774.576 110.721 770.435 111.217V92.8825C791.148 91.4041 801.505 100.571 801.505 120.376V142.254C801.505 146.292 802.444 148.906 804.32 150.087C806.196 151.268 809.155 151.71 813.197 151.421V169.9C809.155 169.603 806.196 170.044 804.32 171.233C802.444 172.414 801.505 175.028 801.505 179.067V200.944C801.505 220.757 791.148 229.916 770.435 228.438V228.453Z" fill="black"/>
<path d="M899.836 128.667H858.408V153.204H898.653V172.719H858.408V212.634H837.991V109.152H899.836V128.667Z" fill="black"/>
<path d="M978.695 212.634L957.836 176.712H942.3V212.634H921.884V109.152H963.312C972.875 109.152 981.013 112.504 987.724 119.203C994.428 125.908 997.784 133.986 997.784 143.45C997.784 149.859 995.961 155.795 992.308 161.266C988.655 166.737 983.827 170.852 977.81 173.611L1000.74 212.641H978.695V212.634ZM942.3 128.225V158.828H963.312C967.155 158.828 970.465 157.326 973.226 154.316C975.987 151.314 977.368 147.687 977.368 143.45C977.368 139.213 975.987 135.616 973.226 132.66C970.465 129.703 967.163 128.225 963.312 128.225H942.3Z" fill="black"/>
<path d="M1087.07 202.316C1078.75 210.576 1068.59 214.706 1056.6 214.706C1044.61 214.706 1034.48 210.576 1026.21 202.316C1017.94 194.056 1013.81 183.936 1013.81 171.95C1013.81 159.963 1017.94 149.843 1026.21 141.583C1034.48 133.323 1044.6 129.193 1056.6 129.193C1068.6 129.193 1078.75 133.323 1087.07 141.583C1095.39 149.843 1099.55 159.963 1099.55 171.95C1099.55 183.936 1095.39 194.056 1087.07 202.316ZM1048.9 119.073C1046.79 121.176 1044.22 122.228 1041.2 122.228C1038.18 122.228 1035.58 121.176 1033.42 119.073C1031.26 116.97 1030.18 114.402 1030.18 111.384C1030.18 108.367 1031.26 105.768 1033.42 103.612C1035.59 101.455 1038.17 100.373 1041.2 100.373C1044.23 100.373 1046.79 101.455 1048.9 103.612C1051 105.776 1052.06 108.367 1052.06 111.384C1052.06 114.402 1051 116.97 1048.9 119.073ZM1040.96 187.982C1045.11 192.196 1050.33 194.3 1056.6 194.3C1062.87 194.3 1068.11 192.196 1072.32 187.982C1076.54 183.768 1078.64 178.427 1078.64 171.95C1078.64 165.472 1076.54 160.131 1072.32 155.917C1068.1 151.703 1062.86 149.6 1056.6 149.6C1050.34 149.6 1045.11 151.703 1040.96 155.917C1036.79 160.131 1034.72 165.472 1034.72 171.95C1034.72 178.427 1036.8 183.768 1040.96 187.982ZM1079.69 119.073C1077.59 121.176 1075.02 122.228 1072 122.228C1068.98 122.228 1066.38 121.176 1064.22 119.073C1062.05 116.97 1060.98 114.402 1060.98 111.384C1060.98 108.367 1062.05 105.768 1064.22 103.612C1066.38 101.455 1068.97 100.373 1072 100.373C1075.03 100.373 1077.59 101.455 1079.69 103.612C1081.8 105.776 1082.85 108.367 1082.85 111.384C1082.85 114.402 1081.8 116.97 1079.69 119.073Z" fill="black"/>
<path d="M1157.2 214.706C1146.94 214.706 1138.3 212.413 1131.3 207.833C1124.3 203.253 1119.37 197.02 1116.51 189.133L1133.97 178.93C1138.01 189.476 1145.95 194.749 1157.78 194.749C1163.5 194.749 1167.7 193.713 1170.36 191.648C1173.02 189.583 1174.36 186.969 1174.36 183.814C1174.36 180.172 1172.73 177.337 1169.47 175.31C1166.22 173.291 1160.4 171.096 1152.02 168.734C1147.38 167.355 1143.46 165.975 1140.26 164.596C1137.05 163.217 1133.84 161.373 1130.64 159.049C1127.43 156.732 1124.99 153.798 1123.32 150.255C1121.64 146.704 1120.8 142.566 1120.8 137.834C1120.8 128.469 1124.13 121.009 1130.78 115.438C1137.44 109.868 1145.46 107.087 1154.83 107.087C1163.21 107.087 1170.59 109.136 1176.95 113.221C1183.31 117.313 1188.27 123.005 1191.82 130.298L1174.66 140.204C1170.52 131.334 1163.91 126.899 1154.83 126.899C1150.59 126.899 1147.26 127.859 1144.85 129.779C1142.43 131.7 1141.23 134.192 1141.23 137.247C1141.23 140.501 1142.58 143.138 1145.29 145.157C1148.01 147.176 1153.21 149.371 1160.9 151.733C1164.06 152.716 1166.45 153.486 1168.08 154.027C1169.7 154.568 1171.92 155.406 1174.74 156.542C1177.55 157.677 1179.72 158.736 1181.25 159.719C1182.78 160.702 1184.53 162.036 1186.51 163.712C1188.48 165.389 1189.98 167.111 1191.02 168.886C1192.06 170.662 1192.94 172.803 1193.68 175.318C1194.42 177.832 1194.8 180.568 1194.8 183.525C1194.8 193.088 1191.32 200.67 1184.36 206.294C1177.41 211.917 1168.35 214.722 1157.21 214.722L1157.2 214.706Z" fill="black"/>
<path d="M1280 109.152V128.667H1252.03V212.634H1231.62V128.667H1203.8V109.152H1280Z" fill="black"/>
</g>
<defs>
<clipPath id="clip0_482_31106">
<rect width="1280" height="382" fill="white"/>
</clipPath>
</defs>
</svg>
